<?xml version="1.0" encoding="UTF-8"?>
<svg version="1.1" xmlns="http://www.w3.org/2000/svg" width="627" height="499">
<path d="M0 0 C10.08508819 4.92527563 17.1106703 16.94395199 20.6875 27.3125 C21.77348954 30.76725868 21.85377161 34.01192805 21.875 37.625 C21.88917969 38.71425781 21.90335938 39.80351563 21.91796875 40.92578125 C21.66129883 44.69752398 20.83832322 47.72356909 19.6875 51.3125 C20.53054688 50.67441406 21.37359375 50.03632812 22.2421875 49.37890625 C23.34889468 48.54418643 24.45566901 47.70955563 25.5625 46.875 C26.11808594 46.45412109 26.67367187 46.03324219 27.24609375 45.59960938 C31.73308712 42.22084931 34.04758993 41.19391569 39.71484375 40.88671875 C41.6875 41.3125 41.6875 41.3125 43.41015625 43.0390625 C46.45536718 48.45897921 45.1666965 54.79185971 43.6328125 60.56640625 C42.60211301 64.17424605 41.47823225 67.74924998 40.32128906 71.31835938 C39.37435912 74.2977599 38.53068371 77.30225537 37.6875 80.3125 C38.29335938 79.92578125 38.89921875 79.5390625 39.5234375 79.140625 C40.78027344 78.35945313 40.78027344 78.35945313 42.0625 77.5625 C43.28066406 76.79679687 43.28066406 76.79679687 44.5234375 76.015625 C52.00515515 71.98842883 59.68422862 69.6231298 67.97265625 67.91015625 C69.9043614 67.49053131 71.83600007 67.07060021 73.76757812 66.65039062 C76.76367041 66.00923031 79.76064342 65.37276251 82.7590332 64.74243164 C85.68725466 64.1233548 88.61118316 63.48645369 91.53515625 62.84765625 C92.41978043 62.6672731 93.3044046 62.48688995 94.21583557 62.30104065 C101.76939087 60.63597419 107.79106403 57.38911863 114.0625 52.9375 C114.92875 52.40125 115.795 51.865 116.6875 51.3125 C117.6775 51.6425 118.6675 51.9725 119.6875 52.3125 C118.46255213 64.78184112 110.23565622 76.86529029 100.75 84.875 C96.61101347 87.91879079 92.19198427 90.29850276 87.625 92.625 C86.96443604 92.96281494 86.30387207 93.30062988 85.62329102 93.64868164 C81.05736279 95.88328865 76.65288051 97.22199837 71.6875 98.3125 C73.37151926 98.82410079 75.05995222 99.32118059 76.75 99.8125 C77.68972656 100.0909375 78.62945312 100.369375 79.59765625 100.65625 C85.95600307 102.00669534 90.90071223 101.21820858 97 99.125 C97.65009033 98.90303955 98.30018066 98.6810791 98.9699707 98.45239258 C103.7482878 96.77221557 108.21476247 94.71256856 112.63671875 92.23046875 C114.6875 91.3125 114.6875 91.3125 118.6875 91.3125 C118.3729845 97.82382096 115.97309206 101.39124382 112 106.4375 C111.48244141 107.12714844 110.96488281 107.81679687 110.43164062 108.52734375 C101.13483184 120.63750812 89.98267834 124.05097873 75.6875 127.3125 C76.60861572 127.50042114 76.60861572 127.50042114 77.54833984 127.69213867 C80.38958052 128.28039554 83.2258377 128.89006299 86.0625 129.5 C87.02800781 129.69658203 87.99351562 129.89316406 88.98828125 130.09570312 C98.00488673 132.06241237 106.02520886 135.09659055 112.6875 141.6875 C120.55426617 149.05265278 127.73883143 153.76133799 138.09765625 156.9765625 C140.6875 158.3125 140.6875 158.3125 141.55859375 160.9609375 C141.60113281 161.73695313 141.64367187 162.51296875 141.6875 163.3125 C126.02184998 174.06343629 109.41412543 177.06110682 90.99609375 173.75 C90.23425781 173.605625 89.47242188 173.46125 88.6875 173.3125 C93.23644374 178.26282113 97.26537411 181.34982149 104.10546875 181.71875 C106.50999134 181.78637098 108.91307335 181.81292608 111.31835938 181.83984375 C112.09373047 181.86175781 112.86910156 181.88367188 113.66796875 181.90625 C114.36817139 181.91333984 115.06837402 181.92042969 115.78979492 181.92773438 C118.20868731 182.41817235 119.11901826 183.46037299 120.6875 185.3125 C112.71339236 194.93642301 97.82428777 198.30146201 85.828125 199.62890625 C79.66726697 199.7760605 73.69333775 198.59130956 67.6875 197.3125 C68.02523437 197.80878906 68.36296875 198.30507812 68.7109375 198.81640625 C69.15695312 199.49574219 69.60296875 200.17507812 70.0625 200.875 C70.50335938 201.53628906 70.94421875 202.19757813 71.3984375 202.87890625 C75.37125644 210.37910685 75.55687311 218.94880676 76.3671875 227.24414062 C77.26271596 235.28863204 78.8348414 242.76595147 84 249.1875 C84.8353125 250.239375 84.8353125 250.239375 85.6875 251.3125 C85.29296875 253.4453125 85.29296875 253.4453125 84.6875 255.3125 C74.90183512 254.66012234 64.69259221 252.19379223 56.6875 246.3125 C52.32644421 241.04493262 50.04842784 234.65051134 47.6875 228.3125 C47.64262451 228.90675781 47.59774902 229.50101563 47.55151367 230.11328125 C47.33810597 232.84745113 47.10667582 235.57981982 46.875 238.3125 C46.76961914 239.71435547 46.76961914 239.71435547 46.66210938 241.14453125 C46.14611137 247.04754846 45.03227023 251.86492422 42.6875 257.3125 C36.57731278 257.00841603 33.33963325 254.11131732 28.875 250.3125 C28.1722998 249.72815186 27.46959961 249.14380371 26.74560547 248.54174805 C21.42751102 244.06951891 16.44359495 239.3818012 11.6875 234.3125 C11.0275 233.6525 10.3675 232.9925 9.6875 232.3125 C2.25051042 250.18775685 -4.88480689 268.07256716 -8.37890625 287.1953125 C-9.3125 289.3125 -9.3125 289.3125 -11.90234375 290.6171875 C-12.69769531 290.84664063 -13.49304688 291.07609375 -14.3125 291.3125 C-19.95207534 286.82080283 -21.65023863 281.09048704 -24 274.4375 C-24.38994141 273.37402344 -24.77988281 272.31054688 -25.18164062 271.21484375 C-29.19592083 260.16699567 -31.83985906 252.08851496 -27.96875 240.546875 C-27.17159848 238.22088955 -27.17159848 238.22088955 -27.3125 235.3125 C-27.69019531 235.73660156 -28.06789063 236.16070312 -28.45703125 236.59765625 C-35.26302075 243.84994014 -43.66362215 249.65074059 -53.3125 252.3125 C-56.0390625 251.875 -56.0390625 251.875 -58.3125 251.3125 C-59.07999734 241.84669943 -57.12758021 234.9253326 -53.3125 226.3125 C-52.63960896 224.64833659 -51.97067368 222.98253881 -51.3125 221.3125 C-51.96992188 221.62703125 -52.62734375 221.9415625 -53.3046875 222.265625 C-67.52394514 228.66236421 -82.74096164 230.73479635 -98.10205078 232.74243164 C-104.31190957 233.61177372 -109.52522065 234.93800617 -115.17382812 237.703125 C-117.3125 238.3125 -117.3125 238.3125 -119.59179688 237.421875 C-120.44354492 236.87273437 -120.44354492 236.87273437 -121.3125 236.3125 C-120.86209781 230.6997958 -118.69512866 227.29415083 -115.5625 222.8125 C-114.91667969 221.85537109 -114.91667969 221.85537109 -114.2578125 220.87890625 C-105.56948255 208.15856689 -97.30703002 205.41481656 -82.3125 202.3125 C-83.03953125 202.03277344 -83.7665625 201.75304687 -84.515625 201.46484375 C-92.1157105 198.43455325 -99.63343791 195.0978382 -106.3125 190.3125 C-106.6425 189.3225 -106.9725 188.3325 -107.3125 187.3125 C-104.07278004 183.63100005 -100.38694478 181.5951647 -96.0625 179.4375 C-90.36279261 176.50799522 -85.29647326 173.3810496 -80.3125 169.3125 C-81.42044922 169.10947266 -81.42044922 169.10947266 -82.55078125 168.90234375 C-97.87943615 165.64963045 -108.58716474 155.34035549 -119.8046875 145.01953125 C-120.48789063 144.39433594 -121.17109375 143.76914063 -121.875 143.125 C-122.43316406 142.59519531 -122.99132812 142.06539062 -123.56640625 141.51953125 C-127.1864783 139.01706533 -131.36141332 139.20981123 -135.61328125 139.43359375 C-137.07797852 139.50610352 -137.07797852 139.50610352 -138.57226562 139.58007812 C-139.57966797 139.63615234 -140.58707031 139.69222656 -141.625 139.75 C-142.65173828 139.80220703 -143.67847656 139.85441406 -144.73632812 139.90820312 C-147.26206087 140.03742666 -149.78735261 140.17237291 -152.3125 140.3125 C-152.437353 135.35035463 -151.61038768 133.68203434 -148.28125 130.0859375 C-137.82516071 120.66715865 -126.76484919 119.68237907 -113.3125 120.3125 C-111.30671841 120.6090659 -109.30360401 120.92959538 -107.3125 121.3125 C-107.80169922 120.55066406 -107.80169922 120.55066406 -108.30078125 119.7734375 C-115.5260715 108.39200684 -115.5260715 108.39200684 -114.8828125 105.140625 C-114.69460937 104.53734375 -114.50640625 103.9340625 -114.3125 103.3125 C-101.99745155 104.21972144 -101.99745155 104.21972144 -96.0625 104.875 C-91.45776761 105.35811946 -86.94049853 105.38714514 -82.3125 105.3125 C-82.74820313 104.66925781 -83.18390625 104.02601562 -83.6328125 103.36328125 C-91.69821413 91.12551816 -96.48130479 78.50601916 -100.89013672 64.60131836 C-103.46309746 56.78401368 -106.28200628 49.99949581 -113.3125 45.3125 C-115.19404883 44.87138435 -117.09312638 44.5015733 -119 44.1875 C-119.99386719 44.01992188 -120.98773438 43.85234375 -122.01171875 43.6796875 C-123.15060547 43.49792969 -123.15060547 43.49792969 -124.3125 43.3125 C-124.3125 41.9925 -124.3125 40.6725 -124.3125 39.3125 C-112.85834481 35.23991149 -103.24021795 37.50379524 -92.3125 42.3125 C-81.43419304 47.63625418 -70.81351249 56.31047502 -65.3125 67.3125 C-63.3325 59.7225 -61.3525 52.1325 -59.3125 44.3125 C-57.9925 43.9825 -56.6725 43.6525 -55.3125 43.3125 C-52.12276813 47.7637657 -48.96264031 52.21874279 -46.08984375 56.8828125 C-42.11104417 63.32728676 -38.45391771 68.70643672 -32.3125 73.3125 C-31.9825 73.9725 -31.6525 74.6325 -31.3125 75.3125 C-31.21231567 74.23609253 -31.21231567 74.23609253 -31.11010742 73.13793945 C-30.01966138 64.45013498 -26.96559428 58.02657813 -22.625 50.5 C-21.3514108 48.21246967 -20.08055576 45.92341484 -18.8125 43.6328125 C-17.90177734 41.99940918 -17.90177734 41.99940918 -16.97265625 40.33300781 C-10.29982068 28.19237228 -5.27505355 16.4204639 -4.62109375 2.4296875 C-4.51925781 1.73101562 -4.41742188 1.03234375 -4.3125 0.3125 C-2.3125 -0.6875 -2.3125 -0.6875 0 0 Z M-0.3125 5.3125 C-0.62380859 6.983125 -0.62380859 6.983125 -0.94140625 8.6875 C-4.28226677 25.64662989 -10.94766626 39.25734193 -19.78100586 54.0690918 C-25.44574495 63.72890056 -28.30595897 71.1658653 -26.0625 82.3125 C-25.91425781 83.15683594 -25.76601563 84.00117187 -25.61328125 84.87109375 C-24.87447238 89.22303055 -24.87447238 89.22303055 -23.3125 93.3125 C-12.4225 92.3225 -12.4225 92.3225 -1.3125 91.3125 C1.77538645 83.7056715 1.77538645 83.7056715 4.3125 76.0625 C7.28555833 66.87851821 11.63415481 58.21150299 15.71948242 49.48217773 C18.72820555 42.7385403 18.72197289 35.31919013 16.88671875 28.2109375 C13.96634513 20.60391618 8.65823302 10.22843601 1.41015625 5.9765625 C0.55744141 5.64785156 0.55744141 5.64785156 -0.3125 5.3125 Z M-110.3125 41.3125 C-109.2296875 42.3025 -109.2296875 42.3025 -108.125 43.3125 C-101.61701122 49.9310061 -98.91380028 57.73484246 -96.11987305 66.4541626 C-89.75616143 86.17377349 -82.31204066 101.12134285 -66.06640625 114.67578125 C-64.21964992 116.39914629 -62.86228156 118.16890507 -61.4375 120.25 C-60.73625 121.260625 -60.035 122.27125 -59.3125 123.3125 C-58.6525 123.3125 -57.9925 123.3125 -57.3125 123.3125 C-55.92684366 121.29606919 -55.92684366 121.29606919 -54.5625 118.75 C-50.88668118 112.41145389 -46.49357704 107.44910428 -41.3125 102.3125 C-42.39917969 101.84070313 -42.39917969 101.84070313 -43.5078125 101.359375 C-51.55290015 97.79808287 -57.66909459 95.07583596 -62.3125 87.3125 C-63.17857667 84.92149078 -63.96800826 82.50162803 -64.6875 80.0625 C-69.91325569 63.51427366 -80.04063838 53.33792669 -95.3125 45.3125 C-100.40026069 43.06324092 -104.71668278 41.3125 -110.3125 41.3125 Z M37.6875 44.3125 C31.55592821 47.03764302 26.7522486 50.78791506 21.875 55.3125 C21.32432861 55.82264648 20.77365723 56.33279297 20.20629883 56.85839844 C18.66881405 58.31498764 17.17281728 59.80294009 15.6875 61.3125 C14.96691406 62.03308594 14.24632812 62.75367187 13.50390625 63.49609375 C10.72817044 67.79997658 9.69619453 72.4461834 8.4375 77.375 C8.169375 78.36822266 7.90125 79.36144531 7.625 80.38476562 C6.52770607 84.54160617 5.6875 87.98369937 5.6875 92.3125 C9.69908212 94.05575296 13.29350766 95.20619373 17.6875 95.3125 C22.02957457 92.96324324 25.28100914 89.85338073 28.6875 86.3125 C29.18282227 85.88928467 29.67814453 85.46606934 30.18847656 85.0300293 C33.65465007 81.05860738 34.74056519 75.17415846 36.375 70.25 C36.79072266 69.05955078 37.20644531 67.86910156 37.63476562 66.64257812 C41.05460818 56.68215144 41.05460818 56.68215144 40.6875 46.3125 C39.6975 45.6525 38.7075 44.9925 37.6875 44.3125 Z M-56.3125 50.3125 C-56.786875 51.529375 -57.26125 52.74625 -57.75 54 C-58.01683594 54.68449219 -58.28367187 55.36898437 -58.55859375 56.07421875 C-61.35054576 64.36327835 -62.54813971 78.46383185 -58.6796875 86.6796875 C-55.38885084 90.60988671 -50.75656308 92.90504585 -46.3125 95.3125 C-45.16201172 95.98539063 -45.16201172 95.98539063 -43.98828125 96.671875 C-41.15709344 98.24655469 -38.96404839 99.32801306 -35.6875 99.25 C-32.79441002 98.1079908 -30.05445909 96.77912928 -27.3125 95.3125 C-29.49929518 86.79644398 -31.95068641 78.74702163 -39.0859375 73.1640625 C-43.75431656 69.19069044 -46.65393675 64.61479817 -49.75 59.375 C-50.78756528 57.65585949 -51.8277728 55.93830983 -52.87109375 54.22265625 C-53.54096313 53.09549194 -53.54096313 53.09549194 -54.22436523 51.94555664 C-54.58344971 51.40664795 -54.94253418 50.86773926 -55.3125 50.3125 C-55.6425 50.3125 -55.9725 50.3125 -56.3125 50.3125 Z M109.31640625 61.12890625 C104.61950063 64.35332983 99.11299054 65.0941923 93.625 66.25 C91.28767786 66.76785669 88.95043939 67.28609115 86.61328125 67.8046875 C84.30472795 68.30747744 81.99613576 68.81008883 79.6875 69.3125 C60.95212558 73.43886723 46.56982348 78.80279362 30.75927734 89.86328125 C29.376819 90.83031787 27.98641235 91.78608887 26.58837891 92.73046875 C24.91921446 93.87427197 23.29780631 95.0872207 21.6875 96.3125 C21.6875 96.9725 21.6875 97.6325 21.6875 98.3125 C23.37199748 99.48368301 25.11245999 100.57492662 26.875 101.625 C31.05846583 104.2019287 34.45240191 106.63118148 37.6875 110.3125 C41.63896214 108.95571477 44.24430074 107.18009605 47.375 104.4375 C53.95017126 99.08853542 60.17081731 96.86047896 68.38208008 94.97436523 C84.70161781 91.20801985 99.32827638 83.71130557 108.6875 69.3125 C110.49401208 66.03791101 112.1444387 62.71861227 113.6875 59.3125 C111.45430026 59.10979017 111.45430026 59.10979017 109.31640625 61.12890625 Z M-45.30859375 111.11328125 C-54.67226954 120.85233825 -60.11297606 135.20490433 -60.75 148.5625 C-60.18430328 164.89699275 -53.80066474 178.92071027 -41.9140625 190.125 C-34.8373774 196.07536585 -27.09517756 199.57668191 -18.3125 202.3125 C-17.71050781 202.50585938 -17.10851562 202.69921875 -16.48828125 202.8984375 C-2.44142186 205.57162798 11.71063621 202.40262281 23.9296875 195.2421875 C36.07021319 186.74725876 44.28164967 175.05353853 48.1875 160.6875 C50.62369053 145.27786107 47.72644339 130.61952425 38.9375 117.75 C29.70518892 105.53952405 17.13490741 97.05950455 1.79296875 94.90625 C-16.51447336 92.99515284 -31.72074787 98.85497019 -45.30859375 111.11328125 Z M109.6875 98.3125 C107.17519977 99.20092467 104.75960477 100.14469967 102.3125 101.1875 C91.14579434 105.87238226 83.91364875 105.84780199 72.15234375 102.87109375 C64.93611822 101.70771128 59.73393593 103.92126878 53.5 107.1875 C52.80197266 107.53941406 52.10394531 107.89132813 51.38476562 108.25390625 C47.91845325 110.0282888 44.71094876 111.82811575 41.6875 114.3125 C43.3746103 118.81146079 45.51113501 123.03745365 47.6875 127.3125 C55.56438168 126.67195745 63.28822423 125.46570448 71.0625 124.0625 C72.20460938 123.87042969 73.34671875 123.67835937 74.5234375 123.48046875 C89.15119271 120.83749934 99.99955598 116.15257359 108.6875 103.875 C109.69817671 102.3612409 110.70215271 100.84286752 111.6875 99.3125 C110.6975 98.8175 110.6975 98.8175 109.6875 98.3125 Z M-109.3125 108.3125 C-106.80368427 118.34776294 -100.50467137 123.39480009 -92.06323242 128.57861328 C-78.41985367 136.79438112 -78.41985367 136.79438112 -63.3125 140.3125 C-61.63737034 136.31312793 -60.52884672 132.65955963 -60.3125 128.3125 C-62.2175641 123.91883865 -64.96407465 120.70061039 -68.3125 117.3125 C-68.860271 116.70865479 -69.40804199 116.10480957 -69.97241211 115.48266602 C-75.57406871 109.82882682 -80.48540872 109.15006632 -88.25 108.875 C-89.79977539 108.77928711 -89.79977539 108.77928711 -91.38085938 108.68164062 C-97.36131665 108.33697843 -103.32353581 108.25629491 -109.3125 108.3125 Z M-147.3125 135.3125 C-144.93452139 136.5014893 -143.59761401 136.38621421 -140.953125 136.3046875 C-139.64988281 136.27955078 -139.64988281 136.27955078 -138.3203125 136.25390625 C-136.4971804 136.21000647 -134.67422239 136.1580614 -132.8515625 136.09765625 C-126.232658 135.99026989 -122.03063604 136.81438172 -116.99609375 141.44140625 C-115.88427734 142.64603516 -115.88427734 142.64603516 -114.75 143.875 C-104.54928215 154.36716693 -92.62249262 164.69533804 -77.4296875 165.46484375 C-72.13224142 165.20594601 -67.38613823 163.82251138 -62.3125 162.3125 C-63.3025 153.4025 -63.3025 153.4025 -64.3125 144.3125 C-65.55902344 143.91160156 -66.80554688 143.51070312 -68.08984375 143.09765625 C-76.86695655 140.19479098 -85.2144901 137.11695948 -93.3125 132.625 C-111.5729866 122.58751433 -131.4531182 119.13502172 -147.3125 135.3125 Z M49.6875 131.3125 C49.8304248 132.08883789 49.97334961 132.86517578 50.12060547 133.66503906 C51.16020493 139.54672054 51.93191665 145.0916675 51.8125 151.0625 C51.79445313 152.25359375 51.77640625 153.4446875 51.7578125 154.671875 C51.73460937 155.54328125 51.71140625 156.4146875 51.6875 157.3125 C53.24597656 157.69341797 53.24597656 157.69341797 54.8359375 158.08203125 C74.66053516 162.95720561 74.66053516 162.95720561 83.6875 166.875 C97.31045343 172.65127144 111.63909116 173.09037233 125.53076172 167.58154297 C129.31429577 165.95579797 133.01345971 164.1705662 136.6875 162.3125 C135.85748174 160.09165961 135.85748174 160.09165961 133.46484375 159.453125 C132.52769531 159.15921875 131.59054687 158.8653125 130.625 158.5625 C123.7763456 156.15050603 119.26880357 152.52604661 113.80859375 147.84375 C113.29353271 147.40627441 112.77847168 146.96879883 112.24780273 146.51806641 C110.7600927 145.24940427 109.28591613 143.96492276 107.8125 142.6796875 C91.30047781 130.17183069 69.4047856 130.55062652 49.6875 131.3125 Z M50.6875 162.3125 C49.87207569 164.39469049 49.06026811 166.47829761 48.25 168.5625 C47.79753906 169.72265625 47.34507812 170.8828125 46.87890625 172.078125 C45.98225166 174.51232172 45.28171943 176.80198255 44.6875 179.3125 C48.03802267 181.25635249 51.39354391 183.19141367 54.75 185.125 C55.69294922 185.67220703 56.63589844 186.21941406 57.60742188 186.78320312 C69.4833597 193.61083289 80.1841614 197.80539878 94.0390625 194.30078125 C100.5610043 192.48289175 106.6911039 190.51747033 112.6875 187.3125 C112.6875 186.9825 112.6875 186.6525 112.6875 186.3125 C111.841875 186.27511719 110.99625 186.23773438 110.125 186.19921875 C99.27576833 185.57045646 93.12433787 184.42982916 85.546875 176.4453125 C83.6875 174.3125 83.6875 174.3125 81.8359375 171.72265625 C76.20441272 165.40510937 64.91123738 163.24165751 56.6875 162.3125 C54.68767106 162.2863429 52.68724954 162.28084929 50.6875 162.3125 Z M-71.875 169.875 C-72.59518311 170.23706543 -73.31536621 170.59913086 -74.05737305 170.97216797 C-78.98065864 173.49978953 -83.46770267 176.3388214 -87.91796875 179.63671875 C-92.1496707 182.59821979 -96.73403071 184.93622221 -101.3125 187.3125 C-98.74494849 190.29014654 -95.82008828 191.72669101 -92.3125 193.4375 C-91.260625 193.95570313 -90.20875 194.47390625 -89.125 195.0078125 C-83.90365291 197.4299374 -78.95512345 198.3928773 -73.36328125 196.734375 C-65.65142597 193.29297914 -59.31252046 186.97919394 -54.3125 180.3125 C-56.6225 175.6925 -58.9325 171.0725 -61.3125 166.3125 C-65.38243965 166.3125 -68.32412668 168.07479933 -71.875 169.875 Z M41.6875 182.3125 C40.26269086 183.808254 38.89727806 185.36088062 37.5625 186.9375 C33.6403863 191.4126508 29.62145331 195.00527244 24.6875 198.3125 C25.99399324 202.23197971 27.76446597 203.01620477 31.125 205.375 C43.97862207 214.79241019 50.44235088 224.6623833 56.87109375 238.94140625 C59.77072458 244.5388621 63.87071453 246.20159456 69.65234375 248.40234375 C72.65877646 249.30388663 75.5825902 249.8729077 78.6875 250.3125 C78.43355469 249.83425781 78.17960937 249.35601562 77.91796875 248.86328125 C73.58524515 239.56496431 72.96424013 229.3740359 71.6875 219.3125 C69.97456933 205.99298738 64.91791125 199.87146378 54.6875 191.3125 C53.68976563 190.46429688 52.69203125 189.61609375 51.6640625 188.7421875 C47.19786917 184.31274048 47.19786917 184.31274048 41.6875 182.3125 Z M-54.5 190.25 C-66.75435809 201.21208033 -81.14971518 206.49781962 -96.9296875 210.1875 C-104.01814462 212.54486218 -107.17561827 217.59360798 -111.125 223.5625 C-111.62708984 224.30757812 -112.12917969 225.05265625 -112.64648438 225.8203125 C-113.87560904 227.64644057 -115.09729279 229.47709389 -116.3125 231.3125 C-113.50656129 232.71546936 -112.17624596 231.87311652 -109.1796875 231.0234375 C-101.02440676 228.88063931 -92.72516213 227.78262391 -84.38134766 226.66113281 C-69.39034203 224.62518494 -54.76141285 221.20609247 -43.9375 209.8125 C-43.40125 208.9875 -42.865 208.1625 -42.3125 207.3125 C-41.93222656 206.74402344 -41.55195313 206.17554688 -41.16015625 205.58984375 C-38.96841987 202.24517469 -38.96841987 202.24517469 -38.3984375 198.39453125 C-39.72618659 195.37021388 -41.78149097 193.72997134 -44.25 191.5625 C-45.14589844 190.76328125 -46.04179687 189.9640625 -46.96484375 189.140625 C-50.64199255 186.27722128 -51.46570611 187.29608475 -54.5 190.25 Z M-34.3125 200.3125 C-34.60310303 200.8374707 -34.89370605 201.36244141 -35.19311523 201.90332031 C-37.53653272 206.12986585 -39.89741474 210.34519635 -42.28515625 214.546875 C-50.6257896 228.70178722 -50.6257896 228.70178722 -55.3125 244.3125 C-54.9825 245.3025 -54.6525 246.2925 -54.3125 247.3125 C-41.68501158 245.19689985 -31.90361276 235.04469585 -24.3125 225.3125 C-22.77218684 220.69156053 -23.19090397 216.14256458 -23.3125 211.3125 C-23.3125 210.013125 -23.3125 208.71375 -23.3125 207.375 C-24.47479918 203.81545876 -25.05846911 203.53713544 -28.25 201.875 C-30.44879174 200.92125912 -31.91417922 200.3125 -34.3125 200.3125 Z M10.6875 205.3125 C11.18313369 223.9197309 11.18313369 223.9197309 21.63110352 238.77563477 C27.30150556 244.0647761 33.42751088 248.748766 39.6875 253.3125 C41.81127728 249.3498424 42.38670203 245.75762553 42.6875 241.3125 C42.82091797 239.57806641 42.82091797 239.57806641 42.95703125 237.80859375 C43.41314761 227.2967027 41.46887642 221.62229949 34.49609375 213.87890625 C32.29143748 211.60710309 30.02417144 209.44744441 27.6875 207.3125 C27.11515625 206.76078125 26.5428125 206.2090625 25.953125 205.640625 C23.76575911 203.63366042 22.12464542 202.39992908 19.1875 201.8125 C16.03294433 202.44341113 13.53470785 203.84196408 10.6875 205.3125 Z M-20.3125 205.3125 C-20.168125 205.89515625 -20.02375 206.4778125 -19.875 207.078125 C-17.01293899 219.71889444 -18.14084151 228.36296027 -23.46630859 240.10693359 C-27.92722344 250.16336569 -26.24503474 256.72749853 -22.5625 266.75 C-22.04042969 268.22823242 -22.04042969 268.22823242 -21.5078125 269.73632812 C-19.36638666 275.72042367 -16.98959723 281.54845384 -14.3125 287.3125 C-12.03153339 285.03153339 -11.8067947 283.94457044 -11.0859375 280.859375 C-10.86292969 279.9408374 -10.63992188 279.0222998 -10.41015625 278.07592773 C-10.05244141 276.58428101 -10.05244141 276.58428101 -9.6875 275.0625 C-7.61873076 266.7984686 -5.24750908 258.7488445 -2.3125 250.75 C-1.97589355 249.8317041 -1.63928711 248.9134082 -1.29248047 247.96728516 C0.18148698 244.03504462 1.70465299 240.16939557 3.53125 236.38671875 C8.25475897 226.54978851 9.57093062 217.03493727 6.6875 206.3125 C5.83369751 206.32035522 5.83369751 206.32035522 4.96264648 206.32836914 C2.35010917 206.34932887 -0.26241037 206.36222004 -2.875 206.375 C-3.77025391 206.38337891 -4.66550781 206.39175781 -5.58789062 206.40039062 C-10.61247943 206.41879571 -15.36067291 206.17516398 -20.3125 205.3125 Z " fill="#FFFFFF" transform="translate(319.3125,0.6875)"/>
<path d="M0 0 C13.53 0 27.06 0 41 0 C40.67 1.65 40.34 3.3 40 5 C37.69 5.33 35.38 5.66 33 6 C32.76446541 12.3341123 33.32042335 17.27262549 35.37084961 23.24194336 C35.74882942 24.39489395 35.74882942 24.39489395 36.13444519 25.57113647 C36.9610514 28.08178106 37.80639821 30.58565641 38.65234375 33.08984375 C39.23400053 34.84301571 39.81451355 36.59656751 40.39393616 38.35047913 C41.91548027 42.94529031 43.45326186 47.53450722 44.99432373 52.12280273 C46.56346771 56.80555973 48.11555869 61.49396171 49.66992188 66.18164062 C51.93853444 73.01170758 54.21075325 79.84055464 56.49975586 86.66381836 C56.73927979 87.38119675 56.97880371 88.09857513 57.22558594 88.83769226 C58.4458029 92.48624743 58.4458029 92.48624743 60 96 C62.64408942 87.93010488 65.27048793 79.8547536 67.87484074 71.7719574 C69.08485507 68.018462 70.30074237 64.26709167 71.53051758 60.52001953 C72.71834574 56.90000734 73.89013433 53.27515305 75.05123711 49.64648438 C75.49572318 48.26686623 75.94584182 46.88904901 76.4018116 45.51318359 C79.34805887 36.60788183 81.07855171 29.9042181 77.6953125 20.82421875 C77.44136719 20.14166016 77.18742187 19.45910156 76.92578125 18.75585938 C76.66152344 18.07330078 76.39726562 17.39074219 76.125 16.6875 C75.86847656 15.98560547 75.61195313 15.28371094 75.34765625 14.56054688 C73.58322221 9.91006619 72.17279292 7.17951616 67.8125 4.8125 C67.214375 4.544375 66.61625 4.27625 66 4 C66 2.68 66 1.36 66 0 C79.86 0 93.72 0 108 0 C108 1.32 108 2.64 108 4 C104.37 4.99 100.74 5.98 97 7 C96.0555415 10.777834 95.8898536 11.5579565 96.88964844 14.9934082 C97.11565735 15.78216843 97.34166626 16.57092865 97.57452393 17.3835907 C97.83352478 18.24313858 98.09252563 19.10268646 98.359375 19.98828125 C98.62820496 20.90337967 98.89703491 21.81847809 99.17401123 22.76130676 C103.2893798 36.57512582 107.92891387 50.22882512 112.48828125 63.90063477 C113.68986194 67.50895295 114.88429758 71.11957932 116.078125 74.73046875 C116.44270813 75.81603561 116.80729126 76.90160248 117.18292236 78.02006531 C119.25374288 84.29349632 120.88856378 90.48562306 122 97 C122.66 97 123.32 97 124 97 C124.09470581 96.43592438 124.18941162 95.87184875 124.2869873 95.29067993 C125.65884077 87.77415233 127.89802195 80.6486359 130.28125 73.3984375 C130.70015233 72.10928457 131.11847616 70.81994353 131.53625488 69.53042603 C132.62889562 66.16189093 133.72772662 62.79541235 134.82843018 59.42950439 C136.59083664 54.03785085 138.34530798 48.64362269 140.09666443 43.24837112 C140.70446512 41.37985251 141.31611493 39.51258735 141.92785645 37.64535522 C146.99378268 23.88141219 146.99378268 23.88141219 146.25 9.625 C143.76540547 6.39502712 140.09573459 5.66676889 136.25 4.875 C135.45078125 4.70742188 134.6515625 4.53984375 133.828125 4.3671875 C133.22484375 4.24601562 132.6215625 4.12484375 132 4 C132 2.68 132 1.36 132 0 C173.25 0 214.5 0 257 0 C257 11.22 257 22.44 257 34 C255.02 34 253.04 34 251 34 C250.82984375 32.85402344 250.6596875 31.70804687 250.484375 30.52734375 C250.24031557 28.99727886 249.99548256 27.46733721 249.75 25.9375 C249.64042969 25.18533203 249.53085937 24.43316406 249.41796875 23.65820312 C248.39910946 17.46461112 246.72589697 12.04442273 241.5 8.125 C235.25579254 5.31510664 228.81965342 5.81390827 222.10058594 5.81469727 C220.00695571 5.81250728 217.91384987 5.79431998 215.8203125 5.77539062 C214.48437679 5.7724569 213.1484386 5.77047196 211.8125 5.76953125 C209.99685547 5.76336792 209.99685547 5.76336792 208.14453125 5.75708008 C205.0789466 5.99390125 203.42877063 6.14457278 201 8 C199.34687272 11.44623279 198.7401329 14.26142812 198.68115234 18.06567383 C198.66128265 19.04631302 198.64141296 20.02695221 198.62094116 21.03730774 C198.60938995 22.0833165 198.59783875 23.12932526 198.5859375 24.20703125 C198.56657135 25.28756271 198.5472052 26.36809418 198.5272522 27.48136902 C198.46757897 30.9249996 198.42111959 34.36866383 198.375 37.8125 C198.33680899 40.15040502 198.2977566 42.48829615 198.2578125 44.82617188 C198.16188747 50.55065765 198.07680407 56.27522748 198 62 C200.54320516 61.91240742 203.08316933 61.80546587 205.625 61.6875 C206.33785156 61.66494141 207.05070313 61.64238281 207.78515625 61.61914062 C212.51282119 61.38058872 215.87572237 60.53269925 220 58 C224.17428025 52.37175696 225.03899608 44.76496182 226 38 C227.65 38 229.3 38 231 38 C231.33 55.49 231.66 72.98 232 91 C230.35 91 228.7 91 227 91 C224.68245179 88.68245179 225.08624727 83.43856894 224.6953125 80.296875 C223.98618964 76.93451716 222.85216732 74.85415947 221 72 C221 71.34 221 70.68 221 70 C215.9781656 68.02656348 211.44415968 67.5913726 206.125 67.375 C205.34125 67.33632813 204.5575 67.29765625 203.75 67.2578125 C201.83368633 67.16433378 199.91687681 67.08111505 198 67 C198.09238762 74.02945532 198.19970907 81.05856929 198.31738281 88.08764648 C198.35565015 90.47854447 198.39050693 92.86949959 198.421875 95.26049805 C198.46757372 98.69861256 198.52556122 102.13633452 198.5859375 105.57421875 C198.60326431 107.17604256 198.60326431 107.17604256 198.62094116 108.81022644 C198.6507457 110.31121635 198.6507457 110.31121635 198.68115234 111.8425293 C198.70113785 113.15824165 198.70113785 113.15824165 198.7215271 114.50053406 C199.03782797 117.33952935 199.69246111 119.46070095 201 122 C206.81941622 124.57173133 212.90953482 124.34722439 219.1875 124.3125 C220.2089209 124.30831055 221.2303418 124.30412109 222.28271484 124.29980469 C230.8245788 124.17188766 238.36297548 123.51172161 246 119.375 C252.49680953 111.66003868 253.43980721 101.6330085 255 92 C256.65 92 258.3 92 260 92 C260.33 104.54 260.66 117.08 261 130 C229.32 130 197.64 130 165 130 C165 128.35 165 126.7 165 125 C166.13888672 124.87044922 166.13888672 124.87044922 167.30078125 124.73828125 C168.29464844 124.59777344 169.28851563 124.45726562 170.3125 124.3125 C171.29863281 124.18488281 172.28476562 124.05726563 173.30078125 123.92578125 C176.08899 123.22449492 176.08899 123.22449492 177.6444397 121.08081055 C179.59987173 116.63665885 179.41841356 112.58676202 179.38818359 107.78125 C179.39344055 106.75467285 179.39869751 105.7280957 179.40411377 104.67041016 C179.41730766 101.28011825 179.40857756 97.89029661 179.3984375 94.5 C179.4004584 92.14257721 179.40336998 89.78515503 179.40713501 87.42773438 C179.41155755 82.48822067 179.40512938 77.54886977 179.39111328 72.609375 C179.37402165 66.27733399 179.38386318 59.94567447 179.40183067 53.61364746 C179.41267027 48.7460645 179.40922131 43.87857201 179.4014473 39.01098633 C179.39944579 36.67618769 179.40190282 34.34138085 179.40888596 32.0065918 C179.41650309 28.74375647 179.40489188 25.48153928 179.38818359 22.21875 C179.39729263 20.77072998 179.39729263 20.77072998 179.40658569 19.29345703 C179.36022911 14.40791509 179.26549591 10.92459654 176 7 C173.70122891 5.85061445 172.24537319 5.80158736 169.6875 5.75 C168.54861328 5.71132813 168.54861328 5.71132813 167.38671875 5.671875 C164.26739965 6.10071756 162.5648776 7.17399056 160 9 C154.49888524 17.0754093 151.85834898 26.85418048 149.0234375 36.11328125 C148.57177971 37.56131414 148.11922231 39.0090667 147.66583252 40.45655823 C146.46934648 44.28526175 145.28536966 48.11772097 144.10407257 51.95113373 C142.88318765 55.90541289 141.65062957 59.85605073 140.41943359 63.80712891 C137.80833617 72.1942196 135.21372951 80.58634828 132.62362671 88.97994232 C131.68598574 92.01715804 130.74630996 95.05374335 129.80664062 98.09033203 C126.51795908 108.7208638 123.24361903 119.3556253 120 130 C118.35 130.33 116.7 130.66 115 131 C114.75911652 130.28765701 114.51823303 129.57531403 114.27005005 128.84138489 C111.94887179 121.97768758 109.62683647 115.114281 107.30394173 108.25116444 C106.11104327 104.72659182 104.91842625 101.20192461 103.7265625 97.67700195 C97.2177239 78.42806291 90.64812691 59.2013065 84 40 C83.76720337 40.75658905 83.53440674 41.5131781 83.29455566 42.29269409 C74.19637044 71.86179606 65.09818522 101.43089803 56 131 C53.64781189 130.83836365 53.64781189 130.83836365 51 130 C49.6577301 127.69471741 49.6577301 127.69471741 48.63500977 124.58618164 C48.23963516 123.41903625 47.84426056 122.25189087 47.43690491 121.04937744 C47.0213362 119.75309934 46.60618234 118.45668819 46.19140625 117.16015625 C45.7450669 115.81732363 45.29686296 114.47510951 44.84690857 113.13348389 C43.64400717 109.53008637 42.46672624 105.91878034 41.29376221 102.30554581 C40.07672276 98.57244541 38.83520174 94.84751647 37.59570312 91.12182617 C35.38457066 84.46476196 33.19197695 77.8017978 31.00962257 71.13524914 C27.98099764 61.88393589 24.92395025 52.64209171 21.85665894 43.40353394 C21.02707305 40.89438463 20.20703994 38.38229094 19.38891602 35.86938477 C14.98521217 18.94572728 14.98521217 18.94572728 5 6 C3.35202764 5.28837557 1.68834592 4.60968047 0 4 C0 2.68 0 1.36 0 0 Z " fill="#FFFFFF" transform="translate(178,335)"/>
<path d="M0 0 C3.05335183 1.99576628 5.1809075 2.58158176 8.796875 2.828125 C9.456875 2.498125 10.116875 2.168125 10.796875 1.828125 C11.71173073 -0.97665695 11.71173073 -0.97665695 12.421875 -4.234375 C12.68226563 -5.33910156 12.94265625 -6.44382812 13.2109375 -7.58203125 C13.40429688 -8.43667969 13.59765625 -9.29132812 13.796875 -10.171875 C16.436875 -10.171875 19.076875 -10.171875 21.796875 -10.171875 C21.87681068 3.87682054 21.62502728 17.9086479 21.296875 31.953125 C21.24851265 34.08723539 21.20033449 36.22134997 21.15234375 38.35546875 C21.03597033 43.51307135 20.91712956 48.67061149 20.796875 53.828125 C18.156875 53.828125 15.516875 53.828125 12.796875 53.828125 C12.56613281 52.53519531 12.33539063 51.24226563 12.09765625 49.91015625 C8.6453608 31.22057762 3.87613516 14.19136716 -12.515625 2.703125 C-22.89688152 -4.01619078 -34.4937941 -5.82227332 -46.625 -3.5234375 C-56.2426889 -0.88195956 -63.17802965 3.24660719 -68.640625 11.703125 C-71.15783929 16.31220711 -72.61069792 20.61661799 -73.203125 25.828125 C-73.285625 26.52292969 -73.368125 27.21773437 -73.453125 27.93359375 C-74.05558016 38.26946505 -70.01532486 48.18119764 -63.671875 56.16796875 C-53.57692115 67.04560099 -40.42548615 74.13470039 -27.85546875 81.75390625 C-14.8162857 89.68530575 -1.83535071 97.91012202 9.796875 107.828125 C10.828125 108.611875 11.859375 109.395625 12.921875 110.203125 C24.6559335 120.91683059 31.85127662 134.95561199 33.11328125 150.80078125 C33.79790188 167.59241122 29.79784101 183.4220101 18.171875 196.078125 C2.3212048 210.76600472 -17.35262375 214.500476 -38.22265625 214.078125 C-53.85002839 213.48040566 -66.92197285 207.95434602 -80.29296875 200.18359375 C-83.42347922 198.47627564 -83.42347922 198.47627564 -88.203125 198.828125 C-89.193125 203.118125 -90.183125 207.408125 -91.203125 211.828125 C-93.843125 211.828125 -96.483125 211.828125 -99.203125 211.828125 C-99.2880589 195.57272012 -99.0190469 179.33008062 -98.703125 163.078125 C-98.65477624 160.51953449 -98.60659806 157.96094075 -98.55859375 155.40234375 C-98.44206577 149.21089899 -98.32345099 143.01949706 -98.203125 136.828125 C-95.563125 136.828125 -92.923125 136.828125 -90.203125 136.828125 C-90.10813721 137.476604 -90.01314941 138.12508301 -89.9152832 138.79321289 C-86.69554944 160.37593859 -83.09975643 183.52084598 -64.578125 197.515625 C-53.63315566 204.87289291 -40.1312021 207.3397548 -27.17578125 205.3671875 C-16.99631557 203.14001998 -8.05534786 198.69847538 -2.203125 189.828125 C3.22861093 181.15893057 4.72140047 169.10794717 3.296875 159.078125 C-1.71377795 138.05859344 -18.58179734 126.72017022 -35.83764648 116.03515625 C-37.62627596 114.93676915 -39.41615917 113.84042109 -41.20727539 112.74609375 C-89.03788949 83.51747934 -89.03788949 83.51747934 -96.88671875 56.47265625 C-100.59338065 40.80242352 -98.21313307 24.59218052 -90.140625 10.734375 C-81.96777978 -1.52489283 -69.2972136 -7.87439012 -55.203125 -11.171875 C-35.37419169 -14.60644774 -16.72453794 -11.34005255 0 0 Z " fill="#FFFFFF" transform="translate(128.203125,65.171875)"/>
<path d="M0 0 C26.4 0 52.8 0 80 0 C80 2.31 80 4.62 80 7 C78.98679687 7.09796875 77.97359375 7.1959375 76.9296875 7.296875 C75.57802945 7.44705923 74.22647183 7.59814923 72.875 7.75 C72.20984375 7.811875 71.5446875 7.87375 70.859375 7.9375 C65.93396181 8.51696038 62.73376876 9.73159952 59 13 C56.39093593 18.04128152 55.62409484 21.76082811 55.61904907 27.51428223 C55.6143691 28.23811301 55.60968913 28.96194379 55.60486734 29.70770884 C55.59296943 32.11587646 55.60235378 34.5234695 55.61181641 36.93164062 C55.60774838 38.66513906 55.6024052 40.3986349 55.59588623 42.13212585 C55.58223431 46.82837749 55.58750251 51.52443095 55.59702349 56.22068596 C55.60463108 61.14082235 55.59757142 66.06094203 55.59286499 70.9810791 C55.58741065 79.24278808 55.59459064 87.50441654 55.60888672 95.76611328 C55.6252126 105.31091531 55.61992387 114.85552507 55.6034075 124.40032244 C55.5897835 132.60264494 55.58787745 140.80490965 55.59572351 149.00723982 C55.60039499 153.90291462 55.6010393 158.79849913 55.59111404 163.69416809 C55.58243337 168.29728486 55.58848642 172.90015429 55.60579681 177.5032444 C55.60975577 179.19026593 55.60863774 180.87730836 55.60200882 182.56432152 C55.59377963 184.87173242 55.60413069 187.17835664 55.61904907 189.48571777 C55.62018015 190.77543236 55.62131123 192.06514694 55.62247658 193.39394379 C56.12779149 198.2206482 57.34230546 202.33554825 60.85668945 205.86425781 C69.39785252 210.39022781 80.95351695 209.3052424 90.3125 209.25 C91.61123047 209.25773438 92.90996094 209.26546875 94.24804688 209.2734375 C114.75716039 209.33510349 114.75716039 209.33510349 133.14453125 201.37109375 C135 200 135 200 137 200 C137.27070312 199.44699219 137.54140625 198.89398438 137.8203125 198.32421875 C138.63240416 196.72423685 139.48405037 195.14392234 140.3671875 193.58203125 C147.40378713 180.65729255 149.40038616 166.45966721 151 152 C153.64 152 156.28 152 159 152 C158.98428955 153.13369019 158.98428955 153.13369019 158.96826172 154.2902832 C158.93264439 157.30084896 158.90840785 160.31130398 158.89013672 163.32202148 C158.87598589 165.18285587 158.85052558 167.04359464 158.82421875 168.90429688 C158.74175124 185.35656474 160.05593228 201.47881491 161 218 C107.87 218 54.74 218 0 218 C0 215.36 0 212.72 0 210 C1.02480469 209.89042969 2.04960937 209.78085937 3.10546875 209.66796875 C4.46621867 209.50843255 5.82689194 209.3482416 7.1875 209.1875 C7.86103516 209.11724609 8.53457031 209.04699219 9.22851562 208.97460938 C13.49844838 208.45388587 16.53966404 207.57454094 20 205 C23.80564057 199.69928634 24.12546342 195.35642329 24.14044189 188.92913818 C24.14341302 188.21674335 24.14638414 187.50434851 24.1494453 186.77036595 C24.15811743 184.38303154 24.15963929 181.99574735 24.16113281 179.60839844 C24.16576206 177.89667148 24.17078686 176.18494555 24.17617798 174.47322083 C24.18929419 169.82224281 24.19574548 165.17127923 24.20018864 160.52028561 C24.20312077 157.6135711 24.20722586 154.70686053 24.21169281 151.80014801 C24.22536602 142.70294423 24.2350334 133.60574945 24.2388947 124.5085361 C24.24337442 114.0123854 24.26091907 103.51636499 24.2898953 93.0202539 C24.31152321 84.90376448 24.32159958 76.78731169 24.32293582 68.67079377 C24.3239831 63.82476686 24.32987448 58.97886245 24.34775543 54.13286591 C24.36425516 49.57249242 24.36638238 45.01233327 24.35761642 40.45194054 C24.35684705 38.78145714 24.36117555 37.11096213 24.37107468 35.44050789 C24.60724525 23.85086822 24.60724525 23.85086822 21 13 C16.76695635 9.19639556 12.65079987 8.2640279 7.125 7.75 C6.43664062 7.67265625 5.74828125 7.5953125 5.0390625 7.515625 C3.36093135 7.32916598 1.68062012 7.16250271 0 7 C0 4.69 0 2.38 0 0 Z " fill="#FFFFFF" transform="translate(465,57)"/>
<path d="M0 0 C30.36 0 60.72 0 92 0 C92 11.22 92 22.44 92 34 C90.02 34 88.04 34 86 34 C85.84144531 32.865625 85.68289062 31.73125 85.51953125 30.5625 C84.06794443 18.80436227 84.06794443 18.80436227 78 9 C71.14099682 5.44594024 64.47773847 5.5371273 56.85375977 5.60888672 C54.80613435 5.62505025 52.76045815 5.60893643 50.71289062 5.58984375 C49.41158203 5.59371094 48.11027344 5.59757812 46.76953125 5.6015625 C44.99993042 5.60663818 44.99993042 5.60663818 43.19458008 5.61181641 C39.67845902 6.03907147 37.78454379 6.83604436 35 9 C34.02758055 11.91725834 33.84832181 13.88803439 33.79467773 16.93041992 C33.77473251 17.93123093 33.75478729 18.93204193 33.73423767 19.96318054 C33.71752518 21.04138565 33.70081268 22.11959076 33.68359375 23.23046875 C33.66281265 24.33602615 33.64203156 25.44158356 33.62062073 26.5806427 C33.55517668 30.1161979 33.49626397 33.65182806 33.4375 37.1875 C33.3943099 39.58269008 33.35069546 41.97787255 33.30664062 44.37304688 C33.19950052 50.24861842 33.09772443 56.12426472 33 62 C35.54250021 61.88525534 38.08347338 61.7585303 40.625 61.625 C41.33785156 61.5940625 42.05070312 61.563125 42.78515625 61.53125 C47.15017714 61.29097362 50.92759636 60.74192375 55 59 C56.39239479 56.85917651 56.39239479 56.85917651 57 54 C57.17047852 53.3714209 57.34095703 52.7428418 57.51660156 52.09521484 C58.08254685 49.9656835 58.60817565 47.82944979 59.125 45.6875 C59.30675781 44.94693359 59.48851562 44.20636719 59.67578125 43.44335938 C60.1204213 41.629696 60.56065745 39.81495392 61 38 C62.65 38 64.3 38 66 38 C66.33 55.49 66.66 72.98 67 91 C65.02 91 63.04 91 61 91 C60.84144531 89.91460937 60.68289062 88.82921875 60.51953125 87.7109375 C60.28487562 86.26545881 60.04914097 84.820155 59.8125 83.375 C59.71130859 82.66214844 59.61011719 81.94929688 59.50585938 81.21484375 C58.58603212 75.795321 56.92882084 72.87516471 53 69 C50.40742331 68.13580777 48.65962293 67.82419068 45.98828125 67.68359375 C45.23095703 67.64169922 44.47363281 67.59980469 43.69335938 67.55664062 C42.90767578 67.51732422 42.12199219 67.47800781 41.3125 67.4375 C40.51521484 67.39431641 39.71792969 67.35113281 38.89648438 67.30664062 C36.93118553 67.20072632 34.96561504 67.09987449 33 67 C33.09238762 74.02945532 33.19970907 81.05856929 33.31738281 88.08764648 C33.35565015 90.47854447 33.39050693 92.86949959 33.421875 95.26049805 C33.46757372 98.69861256 33.52556122 102.13633452 33.5859375 105.57421875 C33.59748871 106.64210129 33.60903992 107.70998383 33.62094116 108.81022644 C33.64081085 109.81088638 33.66068054 110.81154633 33.68115234 111.8425293 C33.69447601 112.71967087 33.70779968 113.59681244 33.7215271 114.50053406 C34.03782797 117.33952935 34.69246111 119.46070095 36 122 C41.81918606 124.57162962 47.90971915 124.34773401 54.1875 124.3125 C55.2089209 124.30758545 56.2303418 124.3026709 57.28271484 124.29760742 C69.94444888 124.1121923 69.94444888 124.1121923 81.0625 118.625 C85.28191473 112.9083736 86.86304417 108.09837655 88.1875 101.1875 C88.36474609 100.30384766 88.54199219 99.42019531 88.72460938 98.50976562 C89.15828551 96.34138494 89.58312004 94.17166113 90 92 C91.65 92 93.3 92 95 92 C95.33 104.54 95.66 117.08 96 130 C64.32 130 32.64 130 0 130 C0 128.35 0 126.7 0 125 C1.03060547 124.83564453 1.03060547 124.83564453 2.08203125 124.66796875 C2.98308594 124.50941406 3.88414063 124.35085938 4.8125 124.1875 C5.70582031 124.03667969 6.59914063 123.88585937 7.51953125 123.73046875 C10.23646816 122.93036292 11.29220958 122.22497616 13 120 C13.92568082 117.22295755 14.12929528 115.55344735 14.14044189 112.68667603 C14.14615204 111.80629166 14.15186218 110.92590729 14.15774536 110.0188446 C14.15942215 108.57406487 14.15942215 108.57406487 14.16113281 107.10009766 C14.16609772 106.08356613 14.17106262 105.06703461 14.17617798 104.0196991 C14.19080365 100.65114672 14.19760197 97.28264143 14.203125 93.9140625 C14.2088757 91.57620238 14.21463345 89.23834227 14.22039795 86.90048218 C14.23090881 81.99615255 14.23675106 77.09183931 14.24023438 72.1875 C14.24572211 65.90027876 14.26975595 59.61327375 14.29820633 53.32612038 C14.31681973 48.4963009 14.3220376 43.66653368 14.32357025 38.83668137 C14.32659976 36.51861767 14.33463827 34.20055496 14.34775543 31.8825264 C14.36478996 28.64108006 14.36294192 25.40016422 14.35644531 22.15869141 C14.3656601 21.19955338 14.37487488 20.24041534 14.3843689 19.25221252 C14.35383643 14.39465228 14.29324542 10.873699 11 7 C8.30780956 5.76283886 8.30780956 5.76283886 5.3125 5.1875 C4.31863281 4.95417969 3.32476562 4.72085937 2.30078125 4.48046875 C1.54152344 4.32191406 0.78226562 4.16335938 0 4 C0 2.68 0 1.36 0 0 Z " fill="#FFFFFF" transform="translate(85,335)"/>
<path d="M0 0 C0.67417969 0.3815625 1.34835937 0.763125 2.04296875 1.15625 C2.66816406 1.5171875 3.29335938 1.878125 3.9375 2.25 C6.84624861 4.24806947 6.84624861 4.24806947 10 4 C10.66 1.69 11.32 -0.62 12 -3 C13.65 -3 15.3 -3 17 -3 C17 9.54 17 22.08 17 35 C15.02 35 13.04 35 11 35 C10.84144531 34.10539062 10.68289063 33.21078125 10.51953125 32.2890625 C8.44421333 21.53410004 6.00956522 12.44982266 -2.828125 5.40625 C-8.54700527 1.70337788 -15.19704557 -0.12122768 -22 1 C-28.74160076 2.83015849 -33.2061556 5.07211813 -37 11 C-39.43819071 16.34079869 -40.05768822 21.73970334 -38.2421875 27.3359375 C-32.88998457 40.02107987 -21.85423971 45.58370213 -10.5 52.4375 C-3.25054621 56.8771961 3.69609967 61.26136169 10 67 C10.73347656 67.65355469 11.46695313 68.30710937 12.22265625 68.98046875 C19.95740979 76.23794167 23.56935969 84.32507523 24.25 94.875 C23.89278958 105.03565185 21.21551049 113.59859012 14.02734375 121.04296875 C2.7701026 130.6249036 -10.424903 131.034642 -24.55712891 130.23193359 C-29.51831139 129.76090388 -33.61797829 128.28977095 -38 126 C-38.94746094 125.54496094 -39.89492188 125.08992187 -40.87109375 124.62109375 C-43.27055993 123.45297637 -45.64154431 122.24829325 -48 121 C-48.66 123.64 -49.32 126.28 -50 129 C-51.65 129 -53.3 129 -55 129 C-55 114.15 -55 99.3 -55 84 C-53.35 84 -51.7 84 -50 84 C-48.26654034 85.73345966 -48.52411252 88.09305149 -48.20239258 90.42260742 C-46.65897188 101.09994807 -43.90635391 112.48650325 -35.1875 119.6875 C-27.79877069 124.33225247 -19.25643572 126.35872089 -10.6796875 124.49609375 C-4.07044161 122.58748314 -0.26212523 119.39564924 3.3125 113.5 C6.2526801 107.11354322 6.13948155 99.89505471 4.1875 93.22265625 C-1.11833855 81.26609647 -12.82172005 75.40748475 -23.45703125 68.82421875 C-35.66445515 61.26724205 -47.2593136 53.66654441 -53.25 40.1875 C-55.57814873 30.29286788 -56.06205556 19.84487107 -50.875 10.75 C-39.75746527 -5.02138647 -16.82206181 -9.66860251 0 0 Z " fill="#FFFFFF" transform="translate(603,337)"/>
<path d="M0 0 C15.51 0 31.02 0 47 0 C46.67 1.65 46.34 3.3 46 5 C44.95199219 5.16435547 44.95199219 5.16435547 43.8828125 5.33203125 C42.51769531 5.56986328 42.51769531 5.56986328 41.125 5.8125 C40.22007813 5.96332031 39.31515625 6.11414063 38.3828125 6.26953125 C35.65587522 6.83051301 35.65587522 6.83051301 34 10 C32.57805102 14.80648362 32.84050325 19.81692207 32.82641602 24.78466797 C32.8163855 26.25654823 32.8163855 26.25654823 32.80615234 27.75816345 C32.79211913 29.88721358 32.78021959 32.01627859 32.77020454 34.14535141 C32.75373564 37.52722255 32.73049066 40.90898519 32.70530701 44.290802 C32.63472717 53.90605198 32.57471729 63.5213482 32.52319336 73.13671875 C32.49117316 79.02348243 32.44983331 84.91012375 32.40299797 90.79678726 C32.38710527 93.02840063 32.37472593 95.26004215 32.36609077 97.4916954 C32.20496772 138.56825988 32.20496772 138.56825988 20 153 C10.5676139 161.93384561 -0.2632591 164.51441511 -12.87109375 164.2734375 C-20.04816436 163.94084556 -26.47830222 161.98750734 -31.6875 156.875 C-34.40724568 153.20650583 -34.82602354 149.80843498 -34.50390625 145.3125 C-34 143 -34 143 -32.125 139.875 C-27.70513784 137.2230827 -24.02622846 137.01123375 -19 138 C-15.875 139.875 -15.875 139.875 -14 143 C-13.0783161 148.0651097 -13.19911929 151.7486239 -16 156.125 C-16.66 156.74375 -17.32 157.3625 -18 158 C-10.72058488 159.12932982 -4.67203719 159.47754666 2 156 C9.75782091 149.79374327 11.7811068 142.42842501 13 133 C13.25364116 128.86309442 13.26415565 124.74331678 13.24291992 120.59960938 C13.24481827 119.41288635 13.24671661 118.22616333 13.24867249 117.003479 C13.25234998 113.11683351 13.24172311 109.23037861 13.23046875 105.34375 C13.22826501 102.63138796 13.22877333 99.9190278 13.2290802 97.20666504 C13.22814776 91.54139877 13.21951554 85.87618653 13.20581055 80.2109375 C13.1900287 73.66298877 13.18481477 67.11509885 13.1855461 60.56713247 C13.18622108 53.57940869 13.17928985 46.59170752 13.1700995 39.60399055 C13.16796932 37.59428446 13.16725852 35.584582 13.16686058 33.57487488 C13.16470046 29.83829778 13.15596514 26.10179548 13.14526367 22.36523438 C13.14571686 21.2525116 13.14617004 20.13978882 13.14663696 18.99334717 C13.14237198 17.97859314 13.13810699 16.96383911 13.13371277 15.91833496 C13.13203692 15.03571739 13.13036108 14.15309982 13.12863445 13.24373627 C13.08828319 10.82916613 13.08828319 10.82916613 12 8 C8.64723657 5.67885609 4.97581042 5.45874736 1 5 C0.505 2.525 0.505 2.525 0 0 Z " fill="#FFFFFF" transform="translate(34,335)"/>
<path d="M0 0 C15.84 0 31.68 0 48 0 C47.67 1.65 47.34 3.3 47 5 C46.31292969 5.06316406 45.62585938 5.12632812 44.91796875 5.19140625 C44.01691406 5.31386719 43.11585938 5.43632812 42.1875 5.5625 C41.29417969 5.66691406 40.40085937 5.77132813 39.48046875 5.87890625 C36.40900559 7.26711086 35.81955674 8.80436471 34.60552406 11.86228752 C33.46613874 15.88471763 33.59314976 19.90971335 33.62768555 24.06274414 C33.62403488 25.04899277 33.62038422 26.03524139 33.61662292 27.05137634 C33.60854798 30.29614736 33.62210147 33.54041423 33.63671875 36.78515625 C33.63723768 39.04764302 33.6367187 41.31013025 33.63520813 43.57261658 C33.63529771 48.30767574 33.64569996 53.04256416 33.66381836 57.77758789 C33.6865178 63.84261508 33.68704571 69.90739321 33.68030071 75.97245121 C33.67695731 80.64190377 33.68359766 85.31129969 33.69342995 89.9807415 C33.69727483 92.21702211 33.69843312 94.45330902 33.6968441 96.68959236 C33.6964727 99.81540026 33.70911467 102.94089031 33.7253418 106.06665039 C33.72286438 106.98785675 33.72038696 107.90906311 33.71783447 108.85818481 C33.75688827 113.57880925 33.94055539 117.6470358 36 122 C41.74445883 124.66131804 47.94870932 124.34751517 54.1875 124.3125 C55.2089209 124.30758545 56.2303418 124.3026709 57.28271484 124.29760742 C65.79544115 124.16538011 73.83122287 123.9528838 81 118.875 C86.95232146 110.3185379 88.3654825 101.09190729 90 91 C91.65 91 93.3 91 95 91 C95.33 103.87 95.66 116.74 96 130 C64.32 130 32.64 130 0 130 C0 128.35 0 126.7 0 125 C0.75925781 124.91363281 1.51851563 124.82726562 2.30078125 124.73828125 C3.29464844 124.59777344 4.28851563 124.45726562 5.3125 124.3125 C6.29863281 124.18488281 7.28476562 124.05726563 8.30078125 123.92578125 C11.08754763 123.22397846 11.08754763 123.22397846 12.64642334 121.08753967 C14.61013286 116.60827283 14.40212882 112.51356399 14.35644531 107.67358398 C14.35848969 106.63564697 14.36053406 105.59770996 14.36264038 104.52832031 C14.36564614 101.10073169 14.34717722 97.67362513 14.328125 94.24609375 C14.32506697 91.86385721 14.32319118 89.48161888 14.32244873 87.09938049 C14.31784697 82.10858306 14.3034252 77.1179471 14.28125 72.12719727 C14.25295256 65.72566385 14.24203668 59.32425752 14.2375679 52.9226675 C14.23341373 48.00452907 14.22359649 43.08641639 14.21169281 38.16829109 C14.20599073 35.80754871 14.20123182 33.44680386 14.19742584 31.08605766 C14.19056082 27.78966792 14.17692739 24.49337903 14.16113281 21.19702148 C14.16001495 20.21872879 14.15889709 19.2404361 14.15774536 18.23249817 C14.14918015 16.88461716 14.14918015 16.88461716 14.14044189 15.50950623 C14.13746723 14.7306327 14.13449257 13.95175917 14.13142776 13.14928341 C14.04509923 10.66226458 14.04509923 10.66226458 13 7 C8.71 6.01 4.42 5.02 0 4 C0 2.68 0 1.36 0 0 Z " fill="#FFFFFF" transform="translate(445,335)"/>
</svg>
